<?xml version="1.0" encoding="UTF-8"?>
<svg id="a" xmlns="http://www.w3.org/2000/svg" viewBox="0 0 16.6 11.64">
	<path class="color-path" d="M1.6,5h.6c3.87,0,7.75,0,11.62,0,1.79,0,2.77,.99,2.78,2.79,0,1.02,0,2.04,0,3.06,0,.74-.06,.8-.78,.8-.11,0-.22,0-.32,0-.32,0-.48-.16-.49-.48,0-.19,0-.37,0-.56,0-.18,0-.37,0-.59H1.6c0,.36,0,.73,0,1.09,0,.36-.16,.55-.53,.54-.14,0-.28,0-.42,0-.54,0-.65-.11-.65-.65C0,7.55,0,4.11,0,.67,0,.1,.1,0,.68,0c.03,0,.06,0,.09,0,.77,0,.82,.05,.82,.8,0,1.2,0,2.41,0,3.61,0,.17,0,.34,0,.59Z" />
</svg>
