<?xml version="1.0" encoding="UTF-8"?>
<svg id="a" xmlns="http://www.w3.org/2000/svg" viewBox="0 0 16 14.04">
	<path class="color-path" d="M14.07,12.06H1.93c0,.35,0,.7,0,1.04,0,.85-.08,.94-.91,.94-.96,0-1.02-.05-1.02-1,0-1.58,0-3.16,0-4.74,0-1.47,.81-2.27,2.29-2.27,3.81,0,7.62,0,11.44,0,1.44,0,2.25,.81,2.26,2.24,0,1.66,0,3.31,0,4.97,0,.68-.12,.79-.83,.8-.15,0-.3,0-.45,0-.44,.02-.66-.19-.65-.64,0-.43,0-.85,0-1.35Z" />
	<path class="color-path" d="M13.57,4.97c0-.36,.02-.67,0-.98-.04-.63-.4-.99-1.04-1-.99-.01-1.97,0-2.96,0-.73,0-1.09,.36-1.12,1.09,0,.28,0,.56,0,.88h-.91c0-.29,0-.58,0-.87-.02-.73-.38-1.09-1.11-1.1-.95,0-1.9,0-2.85,0-.8,0-1.14,.35-1.16,1.16,0,.26,0,.52,0,.81H1.04c0-1.4-.03-2.79,.02-4.18C1.07,.26,1.51,0,2.17,0c1.69,0,3.38,0,5.08,0,2.16,0,4.31,0,6.47,0,.95,0,1.27,.32,1.28,1.27,0,1.22,0,2.45,0,3.7h-1.42Z" />
</svg>
